# https://github.com/mikedh/trimesh
v 0.03643378 0.20000000 0.00000000
v 0.07848264 0.03094728 0.00000000
v 0.12040291 0.20000000 0.00000000
v 0.15083583 0.20000000 0.00000000
v 0.19288470 0.03094728 0.00000000
v 0.23480497 0.20000000 0.00000000
v 0.26228033 0.20000000 0.00000000
v 0.21204458 0.00000000 0.00000000
v 0.17801114 0.00000000 0.00000000
v 0.13583369 0.17359623 0.00000000
v 0.09322760 0.00000000 0.00000000
v 0.05919417 0.00000000 0.00000000
v 0.00912988 0.20000000 0.00000000
v 0.03643378 0.20000000 0.04000000
v 0.07848264 0.03094728 0.04000000
v 0.12040291 0.20000000 0.04000000
v 0.15083583 0.20000000 0.04000000
v 0.19288470 0.03094728 0.04000000
v 0.23480497 0.20000000 0.04000000
v 0.26228033 0.20000000 0.04000000
v 0.21204458 0.00000000 0.04000000
v 0.17801114 0.00000000 0.04000000
v 0.13583369 0.17359623 0.04000000
v 0.09322760 0.00000000 0.04000000
v 0.05919417 0.00000000 0.04000000
v 0.00912988 0.20000000 0.04000000
vn 0.49669540 0.63537371 -0.59126469
vn -0.00004640 0.12953674 -0.99157462
vn -0.49694291 0.63522122 -0.59122055
vn 0.49669540 0.63537371 -0.59126469
vn -0.00004640 0.12953674 -0.99157462
vn -0.49694291 0.63522122 -0.59122055
vn 0.65035159 0.50719892 -0.56550161
vn 0.49589953 -0.63586304 -0.59140666
vn -0.49857349 -0.63421304 -0.59093003
vn -0.00014838 -0.12735672 -0.99185697
vn 0.49776949 -0.63471094 -0.59107323
vn -0.49617837 -0.63569177 -0.59135691
vn -0.65012791 0.50744625 -0.56553691
vn 0.49669540 0.63537371 0.59126469
vn -0.00004640 0.12953674 0.99157462
vn -0.49694291 0.63522122 0.59122055
vn 0.49669540 0.63537371 0.59126469
vn -0.00004640 0.12953674 0.99157462
vn -0.49694291 0.63522122 0.59122055
vn 0.65035159 0.50719892 0.56550161
vn 0.49589953 -0.63586304 0.59140666
vn -0.49857349 -0.63421304 0.59093003
vn -0.00014838 -0.12735672 0.99185697
vn 0.49776949 -0.63471094 0.59107323
vn -0.49617837 -0.63569177 0.59135691
vn -0.65012791 0.50744625 0.56553691
f 12//12 13//13 1//1
f 6//6 7//7 8//8
f 12//12 1//1 2//2
f 5//5 6//6 8//8
f 11//11 12//12 2//2
f 5//5 8//8 9//9
f 11//11 2//2 3//3
f 5//5 9//9 10//10
f 10//10 11//11 3//3
f 4//4 5//5 10//10
f 10//10 3//3 4//4
f 14//14 26//26 25//25
f 21//21 20//20 19//19
f 15//15 14//14 25//25
f 21//21 19//19 18//18
f 15//15 25//25 24//24
f 22//22 21//21 18//18
f 16//16 15//15 24//24
f 23//23 22//22 18//18
f 16//16 24//24 23//23
f 23//23 18//18 17//17
f 17//17 16//16 23//23
f 14//14 15//15 1//1
f 1//1 15//15 2//2
f 15//15 16//16 2//2
f 2//2 16//16 3//3
f 16//16 17//17 3//3
f 3//3 17//17 4//4
f 17//17 18//18 4//4
f 4//4 18//18 5//5
f 18//18 19//19 5//5
f 5//5 19//19 6//6
f 19//19 20//20 6//6
f 6//6 20//20 7//7
f 20//20 21//21 7//7
f 7//7 21//21 8//8
f 21//21 22//22 8//8
f 8//8 22//22 9//9
f 22//22 23//23 9//9
f 9//9 23//23 10//10
f 23//23 24//24 10//10
f 10//10 24//24 11//11
f 24//24 25//25 11//11
f 11//11 25//25 12//12
f 26//26 14//14 13//13
f 13//13 14//14 1//1
f 25//25 26//26 12//12
f 12//12 26//26 13//13

