# https://github.com/mikedh/trimesh
v 0.08510073 0.12000000 0.00000000
v 0.08510073 0.10631805 0.00000000
v 0.03237891 0.10631805 0.00000000
v 0.03237891 0.07095585 0.00000000
v 0.07995714 0.07095585 0.00000000
v 0.07995714 0.05729961 0.00000000
v 0.03237891 0.05729961 0.00000000
v 0.03237891 0.00000000 0.00000000
v 0.01615088 0.00000000 0.00000000
v 0.01615088 0.12000000 0.00000000
v 0.08510073 0.12000000 0.05000000
v 0.08510073 0.10631805 0.05000000
v 0.03237891 0.10631805 0.05000000
v 0.03237891 0.07095585 0.05000000
v 0.07995714 0.07095585 0.05000000
v 0.07995714 0.05729961 0.05000000
v 0.03237891 0.05729961 0.05000000
v 0.03237891 0.00000000 0.05000000
v 0.01615088 0.00000000 0.05000000
v 0.01615088 0.12000000 0.05000000
vn 0.57735027 0.57735027 -0.57735027
vn 0.57735027 -0.57735027 -0.57735027
vn 0.30151134 -0.30151134 -0.90453403
vn 0.30151134 0.30151134 -0.90453403
vn 0.57735027 0.57735027 -0.57735027
vn 0.57735027 -0.57735027 -0.57735027
vn 0.30151134 -0.30151134 -0.90453403
vn 0.57735027 -0.57735027 -0.57735027
vn -0.57735027 -0.57735027 -0.57735027
vn -0.57735027 0.57735027 -0.57735027
vn 0.57735027 0.57735027 0.57735027
vn 0.57735027 -0.57735027 0.57735027
vn 0.30151134 -0.30151134 0.90453403
vn 0.30151134 0.30151134 0.90453403
vn 0.57735027 0.57735027 0.57735027
vn 0.57735027 -0.57735027 0.57735027
vn 0.30151134 -0.30151134 0.90453403
vn 0.57735027 -0.57735027 0.57735027
vn -0.57735027 -0.57735027 0.57735027
vn -0.57735027 0.57735027 0.57735027
f 8//8 9//9 10//10
f 5//5 6//6 7//7
f 1//1 2//2 3//3
f 7//7 8//8 10//10
f 4//4 5//5 7//7
f 10//10 1//1 3//3
f 4//4 7//7 10//10
f 10//10 3//3 4//4
f 20//20 19//19 18//18
f 17//17 16//16 15//15
f 13//13 12//12 11//11
f 20//20 18//18 17//17
f 17//17 15//15 14//14
f 13//13 11//11 20//20
f 20//20 17//17 14//14
f 14//14 13//13 20//20
f 11//11 12//12 1//1
f 1//1 12//12 2//2
f 12//12 13//13 2//2
f 2//2 13//13 3//3
f 13//13 14//14 3//3
f 3//3 14//14 4//4
f 14//14 15//15 4//4
f 4//4 15//15 5//5
f 15//15 16//16 5//5
f 5//5 16//16 6//6
f 16//16 17//17 6//6
f 6//6 17//17 7//7
f 17//17 18//18 7//7
f 7//7 18//18 8//8
f 18//18 19//19 8//8
f 8//8 19//19 9//9
f 20//20 11//11 10//10
f 10//10 11//11 1//1
f 19//19 20//20 9//9
f 9//9 20//20 10//10

